<?xml version="1.0" encoding="UTF-8" standalone="no"?>
<!-- Generator: Adobe Illustrator 19.0.0, SVG Export Plug-In . SVG Version: 6.00 Build 0)  -->

<svg
   xmlns:dc="http://purl.org/dc/elements/1.1/"
   xmlns:cc="http://creativecommons.org/ns#"
   xmlns:rdf="http://www.w3.org/1999/02/22-rdf-syntax-ns#"
   xmlns:svg="http://www.w3.org/2000/svg"
   xmlns="http://www.w3.org/2000/svg"
   xmlns:sodipodi="http://sodipodi.sourceforge.net/DTD/sodipodi-0.dtd"
   xmlns:inkscape="http://www.inkscape.org/namespaces/inkscape"
   version="1.1"
   id="Layer_1"
   x="0px"
   y="0px"
   viewBox="0 0 512.001 512.001"
   style="enable-background:new 0 0 512.001 512.001;"
   xml:space="preserve"
   sodipodi:docname="no_sloth.svg"
   inkscape:version="0.92.5 (2060ec1f9f, 2020-04-08)"><metadata
   id="metadata63"><rdf:RDF><cc:Work
       rdf:about=""><dc:format>image/svg+xml</dc:format><dc:type
         rdf:resource="http://purl.org/dc/dcmitype/StillImage" /></cc:Work></rdf:RDF></metadata><defs
   id="defs61" /><sodipodi:namedview
   pagecolor="#ffffff"
   bordercolor="#666666"
   borderopacity="1"
   objecttolerance="10"
   gridtolerance="10"
   guidetolerance="10"
   inkscape:pageopacity="0"
   inkscape:pageshadow="2"
   inkscape:window-width="1920"
   inkscape:window-height="1025"
   id="namedview59"
   showgrid="false"
   inkscape:zoom="1"
   inkscape:cx="257.00049"
   inkscape:cy="256.00049"
   inkscape:window-x="0"
   inkscape:window-y="0"
   inkscape:window-maximized="1"
   inkscape:current-layer="Layer_1" />
<path
   style="fill:#ff6600"
   d="M256.001,49.548C65.076,49.548,0,156.521,0,268.089c0,29.047,8.258,75.259,8.258,75.259l24.774-7.922  c8.258,39.61,24.774,71.298,24.774,71.298l16.516-15.844c66.065,55.454,107.355,63.377,148.645,63.377h66.065  c41.29,0,82.581-7.922,148.645-63.377l16.516,15.844c0,0,16.516-31.688,24.774-71.298l24.774,7.922c0,0,8.258-46.212,8.258-75.259  C512,156.521,446.924,49.548,256.001,49.548z"
   id="path2"
   inkscape:export-filename="/home/jeenu/sources/lazy-image-loader-ts/res/no_sloth.png"
   inkscape:export-xdpi="9"
   inkscape:export-ydpi="9" />
<ellipse
   style="fill:#aa0000"
   cx="256.001"
   cy="297.291"
   rx="173.42"
   ry="107.355"
   id="ellipse4" />
<path
   style="fill:#ffaaaa"
   d="M256.001,115.613c-109.46,0-198.194,77.642-198.194,173.42c0,47.89,41.29,173.42,198.194,173.42  s198.194-125.53,198.194-173.42C454.194,193.256,365.46,115.613,256.001,115.613z M355.098,289.033c0,0-41.29,24.774-99.097,24.774  s-99.097-24.774-99.097-24.774l-54.762,54.762c-5.279-33.886,2.23-67.239,38.246-96.053c41.29-33.032,79.103,8.258,115.613,8.258  s74.323-41.29,115.613-8.258c36.017,28.813,43.525,62.168,38.246,96.053L355.098,289.033z"
   id="path6" />
<path
   style="fill:#464655;"
   d="M182.982,371.178c18.255,36.51,45.636,54.765,73.019,54.765s54.765-18.254,73.019-54.765H182.982z"
   id="path8" />
<g
   id="g14">
	<path
   style="fill:#ff0000"
   d="M338.147,362.051c0,25.205-36.778,36.509-82.146,36.509s-82.146-11.305-82.146-36.509   c0-25.204,41.819-63.892,82.146-63.892S338.147,336.847,338.147,362.051z"
   id="path10" />
	<path
   style="fill:#ff7f2a"
   d="M167.639,332.606l-39.362,25.941c-11.137,7.339-26.115,4.261-33.455-6.876   c-6.398-9.708-4.867-22.342,3.006-30.283l33.173-33.495c11.293-11.403,29.693-11.492,41.095-0.198   c11.403,11.294,11.492,29.693,0.198,41.096C170.889,330.21,169.238,331.536,167.639,332.606z"
   id="path12" />
</g>
<circle
   style="fill:#464655;"
   cx="152.165"
   cy="307.799"
   r="18.254"
   id="circle16" />
<path
   style="fill:#ff7f2a"
   d="M344.361,333.426l39.362,25.941c11.137,7.339,26.115,4.261,33.455-6.876  c6.398-9.708,4.867-22.342-3.006-30.283l-33.173-33.495c-11.293-11.403-29.693-11.492-41.095-0.198  c-11.403,11.294-11.492,29.693-0.198,41.096C341.111,331.03,342.762,332.357,344.361,333.426z"
   id="path18" />
<g
   id="g26">
	<circle
   style="fill:#464655;"
   cx="359.825"
   cy="308.625"
   r="18.254"
   id="circle20" />
	<circle
   style="fill:#464655;"
   cx="237.75"
   cy="371.18"
   r="9.127"
   id="circle22" />
	<circle
   style="fill:#464655;"
   cx="274.251"
   cy="371.18"
   r="9.127"
   id="circle24" />
</g>
<g
   id="g28">
</g>
<g
   id="g30">
</g>
<g
   id="g32">
</g>
<g
   id="g34">
</g>
<g
   id="g36">
</g>
<g
   id="g38">
</g>
<g
   id="g40">
</g>
<g
   id="g42">
</g>
<g
   id="g44">
</g>
<g
   id="g46">
</g>
<g
   id="g48">
</g>
<g
   id="g50">
</g>
<g
   id="g52">
</g>
<g
   id="g54">
</g>
<g
   id="g56">
</g>
</svg>